<svg width="123" height="33" viewBox="0 0 123 33" fill="none" xmlns="http://www.w3.org/2000/svg">
<path d="M78.9321 14.7105C78.9321 14.6059 78.9538 14.4969 78.9582 14.3923C78.98 14.0784 78.9887 13.7646 78.9887 13.4595C78.9887 13.3897 78.9887 13.32 78.9887 13.2546C79.021 10.2469 78.0475 7.31479 76.2229 4.92464C73.8753 1.91261 70.221 0.173385 65.9395 0.0121043C61.4196 -0.152226 56.9985 1.36144 53.5263 4.26208C51.972 5.55504 50.6173 7.07091 49.5061 8.76051C48.1346 10.7541 47.1805 13.005 46.7012 15.3774V15.4646C46.6184 15.9005 46.5487 16.3015 46.4921 16.7156C46.4921 16.7766 46.4921 16.8376 46.4921 16.8987C46.4573 17.1602 46.4311 17.4261 46.4094 17.6876L46.3832 18.0058C46.3832 18.3197 46.3571 18.6292 46.3527 18.9386C46.3527 19.0084 46.3527 19.0738 46.3527 19.1435C46.3132 22.1453 47.2707 25.0752 49.0749 27.4735C51.4269 30.4811 55.0769 32.2247 59.3627 32.3729C63.8812 32.5366 68.3007 31.0229 71.7716 28.1229C73.3246 26.8333 74.6779 25.3203 75.7874 23.6332C77.1653 21.6405 78.1227 19.3875 78.601 17.012V16.9248C78.6882 16.4889 78.7535 16.0835 78.8101 15.6694L78.8362 15.4907C78.8842 15.2335 78.9103 14.972 78.9321 14.7105ZM55.752 22.8181C54.3669 21.044 53.8834 18.5028 54.4453 15.8438V15.7566C55.5473 10.4256 59.9681 6.98206 64.7331 7.1477C64.8332 7.1477 64.9334 7.1477 65.0336 7.1477C65.9144 7.22239 66.7701 7.47903 67.5468 7.90143C68.3234 8.32382 69.0041 8.9028 69.5459 9.60179C70.931 11.3759 71.4144 13.9128 70.8526 16.5761V16.6633C69.7506 21.9768 65.3341 25.4204 60.5648 25.2548H60.2643C59.3852 25.1807 58.5309 24.926 57.7545 24.5068C56.9782 24.0876 56.2965 23.5127 55.752 22.8181V22.8181Z" fill="#0085CA"/>
<path d="M14.8915 7.64919C15.5751 7.55164 16.2663 7.51808 16.9561 7.54893H26.4424L27.8754 0.683594H17.8577C14.9133 0.683594 12.0822 0.766414 9.7738 1.81256C7.16048 2.99819 5.50103 5.29972 4.76494 8.87405L0 32.2075H4.25099C8.24501 32.2075 8.97238 28.6201 9.04207 28.3411L10.7451 19.8717H22.7576L24.1557 13.124H12.1214L12.631 10.7484C12.6615 10.6089 12.7617 10.0902 12.9664 9.35354C13.0841 8.93832 13.306 8.56017 13.611 8.25508C13.974 7.939 14.4171 7.72933 14.8915 7.64919V7.64919Z" fill="#0085CA"/>
<path d="M105.402 5.679C105.042 4.98555 104.493 4.40874 103.818 4.01589C103.143 3.62304 102.371 3.43035 101.591 3.4603C98.6682 3.4603 96.4818 5.30414 94.7047 9.26206L88.8944 22.1035C88.8944 17.8012 88.8944 8.65617 88.8944 5.17337C88.8944 3.56492 88.485 2.31826 87.6488 1.47262C86.8125 0.626986 85.6496 0.221604 84.1338 0.221604C83.3064 0.225548 82.4832 0.339888 81.686 0.561602L81.3594 0.661857L81.7949 27.0335C81.8603 30.6819 83.1626 32.2424 86.4292 32.5955C86.6216 32.6165 86.815 32.6267 87.0085 32.626C89.6871 32.626 92.087 30.6558 93.594 27.2253L99.2257 14.4841V17.3174L99.3564 27.0553C99.4827 30.8868 101.02 32.5999 104.352 32.5999C107.401 32.5999 109.492 30.9304 111.156 27.186L122.998 0.831856L122.563 0.65314C121.51 0.240612 120.391 0.0234764 119.261 0.0123744C118.084 -0.0352654 116.922 0.291218 115.942 0.945043C114.961 1.59887 114.213 2.54648 113.804 3.65209C112.423 6.91695 106.613 21.2797 106.556 21.4235L106.273 22.0643C106.273 22.0643 106.203 9.95949 106.203 9.95513C106.26 8.48765 105.986 7.02623 105.402 5.679V5.679Z" fill="#0085CA"/>
<path d="M45.1787 25.2588L43.724 32.2332H35.7751C31.8552 32.2332 28.4753 32.0588 26.7418 29.9229C25.6224 28.5498 25.3524 26.536 25.9229 23.7681L30.7532 0.674383H32.931C33.1444 0.674383 35.5443 0.595922 36.9511 2.30463C37.8745 3.43796 38.1228 5.05512 37.7003 7.09947L34.4728 22.2424C34.1723 23.6983 34.1679 24.4219 34.4728 24.7968C34.7777 25.1717 35.479 25.2937 36.8945 25.2937H42.8354L45.1439 25.2588" fill="#0085CA"/>
</svg>
