<svg width="24" height="24" viewBox="0 0 24 24" fill="none" xmlns="http://www.w3.org/2000/svg">
<path fill-rule="evenodd" clip-rule="evenodd" d="M11.3005 7.09288C11.691 7.48341 11.691 8.11657 11.3005 8.50709L7.63201 12.1756C7.61205 12.1955 7.59998 12.2226 7.59998 12.2562C7.59998 12.2897 7.61205 12.3168 7.63201 12.3368L11.3005 16.0052C11.691 16.3957 11.691 17.0289 11.3005 17.4194C10.9099 17.81 10.2768 17.81 9.88626 17.4194L6.2178 13.751C5.39403 12.9272 5.39403 11.5851 6.2178 10.7613L9.88626 7.09288C10.2768 6.70236 10.9099 6.70236 11.3005 7.09288Z" fill="black"/>
<path fill-rule="evenodd" clip-rule="evenodd" d="M18.1071 7.09288C18.4976 7.48341 18.4976 8.11657 18.1071 8.50709L14.4387 12.1756C14.4187 12.1955 14.4066 12.2226 14.4066 12.2562C14.4066 12.2897 14.4187 12.3168 14.4387 12.3368L18.1071 16.0052C18.4976 16.3957 18.4976 17.0289 18.1071 17.4194C17.7166 17.81 17.0834 17.81 16.6929 17.4194L13.0244 13.751C12.2007 12.9272 12.2007 11.5851 13.0244 10.7613L16.6929 7.09288C17.0834 6.70236 17.7166 6.70236 18.1071 7.09288Z" fill="black"/>
</svg>
