<?xml version="1.0" encoding="utf-8"?>

<!-- Uploaded to: SVG Repo, www.svgrepo.com, Transformed by: SVG Repo Mixer Tools -->
<svg fill="#242838" width="234px" height="234px" viewBox="-4.48 -4.48 40.96 40.96" xmlns="http://www.w3.org/2000/svg" stroke="#242838" stroke-width="0.00032" transform="matrix(1, 0, 0, 1, 0, 0)rotate(0)">

<g id="SVGRepo_bgCarrier" stroke-width="0">

<path transform="translate(-4.48, -4.48), scale(1.28)" d="M16,30.807552138049353C18.828139590109156,31.73836335678294,22.505683416013618,31.52306234251957,24.645775295668543,29.45308895798098C26.817066125621018,27.352938833202675,25.56149282192034,23.65145206811822,26.399142810285312,20.749129392771078C27.073376770402753,18.413017009175675,28.99312924806228,16.550904387957605,29.070916343095007,14.120685947238787C29.15629852411314,11.453182414271579,28.892628716153634,8.316820964092585,26.852141938032595,6.596565482037324C24.80447356759789,4.870255477267219,21.600998898729,6.430970327872138,19.035928788583185,5.660576066545751C16.445658472802528,4.882613164608514,14.594661155992306,1.6965371702035565,11.922268177476454,2.112520768418941C9.284024200206645,2.5231887470649013,7.909798265730896,5.470777135312442,6.3470994426384575,7.635714053698539C4.906213715193388,9.631893138513089,2.8854387409833553,11.724568927657037,3.2239137380617837,14.163076113325907C3.5645150579292797,16.616902165809023,6.628397340422049,17.59352595786544,8.014308289219649,19.646943206488647C9.08529568803587,21.23375800125978,9.259107034647126,23.198688459069803,10.373116696051223,24.755601326132705C12.009139070054372,27.042066491684214,13.329431194255523,29.92860139124729,16,30.807552138049353" fill="#056ad6" strokewidth="0"/>

</g>

<g id="SVGRepo_tracerCarrier" stroke-linecap="round" stroke-linejoin="round" stroke="#CCCCCC" stroke-width="0.192"/>

<g id="SVGRepo_iconCarrier">

<path d="M16 0c8.837 0 16 7.163 16 16s-7.163 16-16 16S0 24.837 0 16 7.163 0 16 0zm7.073 7.5H10.296C9.263 7.5 8.5 8.28 8.5 9.346v13.33a1.697 1.697 0 001.549 1.713l.17.006a1.69 1.69 0 001.718-1.718V10.789l8.498-.001-5.022 5.012a1.686 1.686 0 000 2.395l5.735 5.717a1.689 1.689 0 002.383-2.394l-4.538-4.523 4.24-4.227c.32-.317.498-.748.497-1.197l.007-3.417a.684.684 0 00-.19-.47l-.003.002-.075-.063a.653.653 0 00-.396-.123z"/>

</g>

</svg>
